<?xml version="1.0" standalone="no"?>
<!DOCTYPE svg PUBLIC "-//W3C//DTD SVG 20010904//EN"
 "http://www.w3.org/TR/2001/REC-SVG-20010904/DTD/svg10.dtd">
<svg version="1.0" xmlns="http://www.w3.org/2000/svg"
 width="512.000000pt" height="512.000000pt" viewBox="0 0 512.000000 512.000000"
 preserveAspectRatio="xMidYMid meet">
<metadata>
Created by potrace 1.11, written by Peter Selinger 2001-2013
</metadata>
<g transform="translate(0.000000,512.000000) scale(0.100000,-0.100000)"
fill="#000000" stroke="none">
<path d="M1145 4317 l-1020 -684 -3 -537 -2 -538 155 -801 c86 -441 157 -802
158 -803 1 -1 549 -183 1218 -405 l1217 -402 83 53 c46 29 482 308 969 621
l886 569 84 280 84 281 -77 382 c-43 210 -142 696 -220 1081 l-142 698 -1175
444 c-646 244 -1180 444 -1185 444 -6 0 -469 -308 -1030 -683z m2104 51 c575
-221 1047 -402 1048 -403 10 -5 443 -1919 436 -1925 -4 -5 -375 -214 -823
-466 -448 -251 -866 -485 -929 -520 -62 -35 -116 -64 -119 -64 -6 0 -2146 681
-2148 683 -1 1 -47 238 -103 527 -56 289 -139 714 -184 944 -45 237 -77 421
-72 423 6 2 419 273 920 603 501 329 914 599 919 599 5 1 480 -180 1055 -401z
m415 -3193 c9 -13 16 -28 16 -32 -1 -4 -26 -23 -58 -41 -31 -19 -218 -128
-415 -244 l-358 -210 -552 176 c-725 231 -755 241 -762 248 -10 10 35 90 48
86 7 -3 291 -98 633 -213 l620 -208 345 200 c433 251 453 263 460 263 4 0 14
-11 23 -25z"/>
<path d="M1420 4010 l-805 -529 1 -38 c1 -30 287 -1514 311 -1610 4 -18 20
-27 67 -42 33 -11 292 -92 575 -180 l513 -161 177 0 c253 0 402 -21 627 -86
l121 -36 129 70 c364 196 1334 729 1342 737 8 7 -379 1679 -392 1692 -13 14
-1828 713 -1848 712 -7 0 -375 -238 -818 -529z"/>
</g>
</svg>
